# Blender v3.2.0 OBJ File: 'Enemy Ship.blend'
# www.blender.org
mtllib Enemy Ship Thrusters.mtl
o EnemyShipThrusters_Cylinder.002
v -0.000000 0.708064 -1.115652
v 0.613201 -0.354032 -1.115652
v -0.613201 -0.354032 -1.115652
v 0.179674 0.103735 -1.115652
v -0.179674 0.103735 -1.115652
v -0.000000 -0.207470 -1.115652
vt 0.750000 0.432447
vt 0.829002 0.295612
vt 0.670998 0.295612
vt 0.750000 0.158776
vt 0.591996 0.158776
vt 0.908004 0.158776
vn -0.0000 0.0000 -1.0000
usemtl None
s off
f 1/1/1 4/2/1 5/3/1
f 5/3/1 6/4/1 3/5/1
f 4/2/1 2/6/1 6/4/1
