# Blender v3.2.0 OBJ File: 'Player Ship.blend'
# www.blender.org
mtllib Player Ship Window.mtl
o Cube.002_Cube.003
v 0.150709 0.244002 2.334835
v 0.150709 0.942600 -0.420458
v 1.890774 0.422705 -1.290416
v -0.150709 0.244002 2.334835
v -0.150709 0.942600 -0.420458
v -1.890774 0.422705 -1.290416
vt 0.814742 0.673756
vt 0.132465 0.088947
vt 0.814742 0.478819
vt 0.814742 0.673756
vt 0.814742 0.478819
vt 0.132465 0.088947
vn 0.3813 0.8961 0.2272
vn -0.3813 0.8961 0.2272
usemtl None
s off
f 1/1/1 3/2/1 2/3/1
f 4/4/2 5/5/2 6/6/2
