# Blender v3.2.0 OBJ File: 'Portal.blend'
# www.blender.org
o portal_1_Circle.001
v -0.380570 0.020000 -1.913256
v -0.746516 0.020000 -1.802248
v -1.083773 0.020000 -1.621980
v -1.379381 0.020000 -1.379381
v -1.621980 0.020000 -1.083773
v -1.802248 0.020000 -0.746515
v -1.913256 0.020000 -0.380570
v -1.950739 0.020000 0.000000
v -1.913256 0.020000 0.380570
v -1.802248 0.020000 0.746515
v -1.621980 0.020000 1.083772
v -1.379381 0.020000 1.379381
v -1.083772 0.020000 1.621980
v -0.746516 0.020000 1.802248
v -0.380570 0.020000 1.913256
v 0.000000 0.020000 1.950739
v 0.380570 0.020000 1.913256
v 0.746516 0.020000 1.802248
v 1.083773 0.020000 1.621980
v 1.379381 0.020000 1.379381
v 1.621980 0.020000 1.083773
v 1.802248 0.020000 0.746516
v 1.913256 0.020000 0.380570
v 1.950739 0.020000 -0.000000
v 1.913256 0.020000 -0.380571
v 1.802248 0.020000 -0.746516
v 1.621980 0.020000 -1.083772
v 1.379381 0.020000 -1.379381
v 1.083773 0.020000 -1.621980
v 0.746515 0.020000 -1.802248
v 0.380570 0.020000 -1.913256
v -0.000000 0.020000 -1.950739
v -0.380570 -0.020000 -1.913256
v -0.746516 -0.020000 -1.802248
v -1.083773 -0.020000 -1.621980
v -1.379381 -0.020000 -1.379381
v -1.621980 -0.020000 -1.083773
v -1.802248 -0.020000 -0.746515
v -1.913256 -0.020000 -0.380570
v -1.950739 -0.020000 0.000000
v -1.913256 -0.020000 0.380570
v -1.802248 -0.020000 0.746515
v -1.621980 -0.020000 1.083772
v -1.379381 -0.020000 1.379381
v -1.083772 -0.020000 1.621980
v -0.746516 -0.020000 1.802248
v -0.380570 -0.020000 1.913256
v 0.000000 -0.020000 1.950739
v 0.380570 -0.020000 1.913256
v 0.746516 -0.020000 1.802248
v 1.083773 -0.020000 1.621980
v 1.379381 -0.020000 1.379381
v 1.621980 -0.020000 1.083773
v 1.802248 -0.020000 0.746516
v 1.913256 -0.020000 0.380570
v 1.950739 -0.020000 -0.000000
v 1.913256 -0.020000 -0.380571
v 1.802248 -0.020000 -0.746516
v 1.621980 -0.020000 -1.083772
v 1.379381 -0.020000 -1.379381
v 1.083773 -0.020000 -1.621980
v 0.746515 -0.020000 -1.802248
v 0.380570 -0.020000 -1.913256
v -0.000000 -0.020000 -1.950739
v -0.000000 0.000000 0.000000
vt 0.000000 0.000000
vt 0.000000 0.000000
vt 0.000000 0.000000
vt 0.000000 0.000000
vt 0.000000 0.000000
vt 0.000000 0.000000
vt 0.000000 0.000000
vt 0.000000 0.000000
vt 0.000000 0.000000
vt 0.000000 0.000000
vt 0.000000 0.000000
vt 0.000000 0.000000
vt 0.000000 0.000000
vt 0.000000 0.000000
vt 0.000000 0.000000
vt 0.000000 0.000000
vt 0.000000 0.000000
vt 0.000000 0.000000
vt 0.000000 0.000000
vt 0.000000 0.000000
vt 0.000000 0.000000
vt 0.000000 0.000000
vt 0.000000 0.000000
vt 0.000000 0.000000
vt 0.000000 0.000000
vt 0.000000 0.000000
vt 0.000000 0.000000
vt 0.000000 0.000000
vt 0.000000 0.000000
vt 0.000000 0.000000
vt 0.000000 0.000000
vt 0.000000 0.000000
vt 0.000000 0.000000
vt 0.000000 0.000000
vt 0.000000 0.000000
vt 0.000000 0.000000
vt 0.000000 0.000000
vt 0.000000 0.000000
vt 0.000000 0.000000
vt 0.000000 0.000000
vt 0.000000 0.000000
vt 0.000000 0.000000
vt 0.000000 0.000000
vt 0.000000 0.000000
vt 0.000000 0.000000
vt 0.000000 0.000000
vt 0.000000 0.000000
vt 0.000000 0.000000
vt 0.000000 0.000000
vt 0.000000 0.000000
vt 0.000000 0.000000
vt 0.000000 0.000000
vt 0.000000 0.000000
vt 0.000000 0.000000
vt 0.000000 0.000000
vt 0.000000 0.000000
vt 0.000000 0.000000
vt 0.000000 0.000000
vt 0.000000 0.000000
vt 0.000000 0.000000
vt 0.000000 0.000000
vt 0.000000 0.000000
vt 0.000000 0.000000
vt 0.000000 0.000000
vt 0.000000 0.000000
vn 0.0099 0.9999 0.0030
vn -0.0080 0.9999 -0.0065
vn 0.0103 0.9999 -0.0010
vn -0.0099 0.9999 -0.0030
vn 0.0091 0.9999 -0.0049
vn -0.0103 0.9999 0.0010
vn 0.0065 0.9999 -0.0080
vn -0.0091 0.9999 0.0049
vn 0.0030 0.9999 -0.0099
vn -0.0065 0.9999 0.0080
vn 0.0049 0.9999 0.0091
vn -0.0010 0.9999 -0.0103
vn -0.0030 0.9999 0.0099
vn 0.0080 0.9999 0.0065
vn -0.0049 0.9999 -0.0091
vn 0.0010 0.9999 0.0103
vn 0.0099 -0.9999 0.0030
vn -0.0080 -0.9999 -0.0065
vn 0.0103 -0.9999 -0.0010
vn -0.0099 -0.9999 -0.0030
vn 0.0091 -0.9999 -0.0049
vn -0.0103 -0.9999 0.0010
vn 0.0065 -0.9999 -0.0080
vn -0.0091 -0.9999 0.0049
vn 0.0030 -0.9999 -0.0099
vn -0.0065 -0.9999 0.0080
vn 0.0049 -0.9999 0.0091
vn -0.0010 -0.9999 -0.0103
vn -0.0030 -0.9999 0.0099
vn 0.0080 -0.9999 0.0065
vn -0.0049 -0.9999 -0.0091
vn 0.0010 -0.9999 0.0103
s off
f 7/1/1 65/2/1 6/3/1
f 21/4/2 65/2/2 20/5/2
f 9/6/3 65/2/3 8/7/3
f 23/8/4 65/2/4 22/9/4
f 11/10/5 65/2/5 10/11/5
f 25/12/6 65/2/6 24/13/6
f 13/14/7 65/2/7 12/15/7
f 27/16/8 65/2/8 26/17/8
f 15/18/9 65/2/9 14/19/9
f 29/20/10 65/2/10 28/21/10
f 3/22/11 65/2/11 2/23/11
f 17/24/12 65/2/12 16/25/12
f 31/26/13 65/2/13 30/27/13
f 5/28/14 65/2/14 4/29/14
f 19/30/15 65/2/15 18/31/15
f 1/32/16 65/2/16 32/33/16
f 39/34/17 38/35/17 65/2/17
f 53/36/18 52/37/18 65/2/18
f 41/38/19 40/39/19 65/2/19
f 55/40/20 54/41/20 65/2/20
f 43/42/21 42/43/21 65/2/21
f 57/44/22 56/45/22 65/2/22
f 45/46/23 44/47/23 65/2/23
f 59/48/24 58/49/24 65/2/24
f 47/50/25 46/51/25 65/2/25
f 61/52/26 60/53/26 65/2/26
f 35/54/27 34/55/27 65/2/27
f 49/56/28 48/57/28 65/2/28
f 63/58/29 62/59/29 65/2/29
f 37/60/30 36/61/30 65/2/30
f 51/62/31 50/63/31 65/2/31
f 33/64/32 64/65/32 65/2/32
