# Blender v3.2.0 OBJ File: 'Portal.blend'
# www.blender.org
o portal_collider_Circle.004
v -0.746516 0.020000 -1.802248
v -1.083773 0.020000 -1.621980
v -1.950739 0.020000 0.000000
v -1.913256 0.020000 0.380570
v -1.802248 0.020000 0.746515
v -1.621980 0.020000 1.083772
v -1.379381 0.020000 1.379381
v -0.746516 0.020000 1.802248
v 0.380570 0.020000 1.913256
v 0.746516 0.020000 1.802248
v 1.083773 0.020000 1.621980
v 1.621980 0.020000 1.083773
v 1.913256 0.020000 0.380570
v 1.950739 0.020000 -0.000000
v 1.802248 0.020000 -0.746516
v 1.379381 0.020000 -1.379381
v 0.746515 0.020000 -1.802248
v -1.083773 -0.020000 -1.621980
v -1.379381 -0.020000 -1.379381
v -1.913256 -0.020000 -0.380570
v -1.950739 -0.020000 0.000000
v -1.379381 -0.020000 1.379381
v -0.746516 -0.020000 1.802248
v 0.380570 -0.020000 1.913256
v 1.379381 -0.020000 1.379381
v 1.621980 -0.020000 1.083773
v 1.802248 -0.020000 0.746516
v 1.913256 -0.020000 0.380570
v 1.379381 -0.020000 -1.379381
v 1.083773 -0.020000 -1.621980
v 0.380570 -0.020000 -1.913256
v -0.000000 -0.020000 -1.950739
v -0.380570 0.020000 -1.913256
v -1.379381 0.020000 -1.379381
v -1.621980 0.020000 -1.083773
v -1.802248 0.020000 -0.746515
v -1.913256 0.020000 -0.380570
v -1.083772 0.020000 1.621980
v -0.380570 0.020000 1.913256
v 0.000000 0.020000 1.950739
v 1.379381 0.020000 1.379381
v 1.802248 0.020000 0.746516
v 1.913256 0.020000 -0.380571
v 1.621980 0.020000 -1.083772
v 1.083773 0.020000 -1.621980
v 0.380570 0.020000 -1.913256
v -0.000000 0.020000 -1.950739
v -0.380570 -0.020000 -1.913256
v -0.746516 -0.020000 -1.802248
v -1.621980 -0.020000 -1.083773
v -1.802248 -0.020000 -0.746515
v -1.913256 -0.020000 0.380570
v -1.802248 -0.020000 0.746515
v -1.621980 -0.020000 1.083772
v -1.083772 -0.020000 1.621980
v -0.380570 -0.020000 1.913256
v 0.000000 -0.020000 1.950739
v 0.746516 -0.020000 1.802248
v 1.083773 -0.020000 1.621980
v 1.950739 -0.020000 -0.000000
v 1.913256 -0.020000 -0.380571
v 1.802248 -0.020000 -0.746516
v 1.621980 -0.020000 -1.083772
v 0.746515 -0.020000 -1.802248
vt 0.000000 0.000000
vt 0.000000 0.000000
vt 0.000000 0.000000
vt 0.000000 0.000000
vt 0.000000 0.000000
vt 0.000000 0.000000
vt 0.000000 0.000000
vt 0.000000 0.000000
vt 0.000000 0.000000
vt 0.000000 0.000000
vt 0.000000 0.000000
vt 0.000000 0.000000
vt 0.000000 0.000000
vt 0.000000 0.000000
vt 0.000000 0.000000
vt 0.000000 0.000000
vt 0.000000 0.000000
vt 0.000000 0.000000
vt 0.000000 0.000000
vt 0.000000 0.000000
vt 0.000000 0.000000
vt 0.000000 0.000000
vt 0.000000 0.000000
vt 0.000000 0.000000
vt 0.000000 0.000000
vt 0.000000 0.000000
vt 0.000000 0.000000
vt 0.000000 0.000000
vt 0.000000 0.000000
vt 0.000000 0.000000
vt 0.000000 0.000000
vt 0.000000 0.000000
vt 0.000000 0.000000
vt 0.000000 0.000000
vt 0.000000 0.000000
vt 0.000000 0.000000
vt 0.000000 0.000000
vt 0.000000 0.000000
vt 0.000000 0.000000
vt 0.000000 0.000000
vt 0.000000 0.000000
vt 0.000000 0.000000
vt 0.000000 0.000000
vt 0.000000 0.000000
vt 0.000000 0.000000
vt 0.000000 0.000000
vt 0.000000 0.000000
vt 0.000000 0.000000
vt 0.000000 0.000000
vt 0.000000 0.000000
vt 0.000000 0.000000
vt 0.000000 0.000000
vt 0.000000 0.000000
vt 0.000000 0.000000
vt 0.000000 0.000000
vt 0.000000 0.000000
vt 0.000000 0.000000
vt 0.000000 0.000000
vt 0.000000 0.000000
vt 0.000000 0.000000
vt 0.000000 0.000000
vt 0.000000 0.000000
vt 0.000000 0.000000
vt 0.000000 0.000000
vn -0.8819 0.0000 0.4714
vn -0.7730 0.0000 0.6344
vn -0.6344 0.0000 0.7730
vn -0.4714 0.0000 0.8819
vn -0.2903 0.0000 0.9569
vn -0.0980 0.0000 0.9952
vn 0.0980 0.0000 0.9952
vn 0.2903 0.0000 0.9569
vn 0.4714 0.0000 0.8819
vn 0.6344 0.0000 0.7730
vn 0.7730 0.0000 0.6344
vn 0.8819 0.0000 0.4714
vn 0.9569 0.0000 0.2903
vn 0.9952 0.0000 0.0980
vn 0.9952 0.0000 -0.0980
vn 0.9569 0.0000 -0.2903
vn 0.8819 0.0000 -0.4714
vn 0.7730 0.0000 -0.6344
vn 0.6344 0.0000 -0.7730
vn 0.4714 0.0000 -0.8819
vn 0.2903 0.0000 -0.9569
vn 0.0980 0.0000 -0.9952
vn -0.0980 0.0000 -0.9952
vn -0.2903 0.0000 -0.9569
vn -0.4714 0.0000 -0.8819
vn -0.6344 0.0000 -0.7730
vn -0.7730 0.0000 -0.6344
vn -0.8819 0.0000 -0.4714
vn -0.9569 0.0000 -0.2903
vn -0.9952 0.0000 -0.0980
vn -0.9952 0.0000 0.0980
vn -0.9569 0.0000 0.2903
vn 0.0000 1.0000 0.0000
vn 0.0000 -1.0000 0.0000
s off
f 54/1/1 5/2/1 53/3/1
f 22/4/2 6/5/2 54/1/2
f 55/6/3 7/7/3 22/4/3
f 23/8/4 38/9/4 55/6/4
f 56/10/5 8/11/5 23/8/5
f 57/12/6 39/13/6 56/10/6
f 24/14/7 40/15/7 57/12/7
f 58/16/8 9/17/8 24/14/8
f 59/18/9 10/19/9 58/16/9
f 25/20/10 11/21/10 59/18/10
f 26/22/11 41/23/11 25/20/11
f 27/24/12 12/25/12 26/22/12
f 28/26/13 42/27/13 27/24/13
f 60/28/14 13/29/14 28/26/14
f 61/30/15 14/31/15 60/28/15
f 62/32/16 43/33/16 61/30/16
f 63/34/17 15/35/17 62/32/17
f 29/36/18 44/37/18 63/34/18
f 30/38/19 16/39/19 29/36/19
f 64/40/20 45/41/20 30/38/20
f 31/42/21 17/43/21 64/40/21
f 32/44/22 46/45/22 31/42/22
f 48/46/23 47/47/23 32/44/23
f 49/48/24 33/49/24 48/46/24
f 18/50/25 1/51/25 49/48/25
f 19/52/26 2/53/26 18/50/26
f 50/54/27 34/55/27 19/52/27
f 51/56/28 35/57/28 50/54/28
f 20/58/29 36/59/29 51/56/29
f 21/60/30 37/61/30 20/58/30
f 52/62/31 3/63/31 21/60/31
f 53/3/32 4/64/32 52/62/32
f 43/33/33 33/49/33 4/64/33
f 25/20/34 22/4/34 19/52/34
f 54/1/1 6/5/1 5/2/1
f 22/4/2 7/7/2 6/5/2
f 55/6/3 38/9/3 7/7/3
f 23/8/4 8/11/4 38/9/4
f 56/10/5 39/13/5 8/11/5
f 57/12/6 40/15/6 39/13/6
f 24/14/7 9/17/7 40/15/7
f 58/16/8 10/19/8 9/17/8
f 59/18/9 11/21/9 10/19/9
f 25/20/10 41/23/10 11/21/10
f 26/22/11 12/25/11 41/23/11
f 27/24/12 42/27/12 12/25/12
f 28/26/13 13/29/13 42/27/13
f 60/28/14 14/31/14 13/29/14
f 61/30/15 43/33/15 14/31/15
f 62/32/16 15/35/16 43/33/16
f 63/34/17 44/37/17 15/35/17
f 29/36/18 16/39/18 44/37/18
f 30/38/19 45/41/19 16/39/19
f 64/40/20 17/43/20 45/41/20
f 31/42/21 46/45/21 17/43/21
f 32/44/22 47/47/22 46/45/22
f 48/46/23 33/49/23 47/47/23
f 49/48/24 1/51/24 33/49/24
f 18/50/25 2/53/25 1/51/25
f 19/52/26 34/55/26 2/53/26
f 50/54/27 35/57/27 34/55/27
f 51/56/28 36/59/28 35/57/28
f 20/58/29 37/61/29 36/59/29
f 21/60/30 3/63/30 37/61/30
f 52/62/31 4/64/31 3/63/31
f 53/3/32 5/2/32 4/64/32
f 4/64/33 5/2/33 6/5/33
f 6/5/33 7/7/33 4/64/33
f 7/7/33 38/9/33 4/64/33
f 38/9/33 8/11/33 9/17/33
f 8/11/33 39/13/33 9/17/33
f 39/13/33 40/15/33 9/17/33
f 9/17/33 10/19/33 11/21/33
f 11/21/33 41/23/33 9/17/33
f 41/23/33 12/25/33 9/17/33
f 12/25/33 42/27/33 13/29/33
f 13/29/33 14/31/33 43/33/33
f 43/33/33 15/35/33 44/37/33
f 44/37/33 16/39/33 45/41/33
f 45/41/33 17/43/33 46/45/33
f 46/45/33 47/47/33 33/49/33
f 33/49/33 1/51/33 2/53/33
f 2/53/33 34/55/33 33/49/33
f 34/55/33 35/57/33 33/49/33
f 35/57/33 36/59/33 4/64/33
f 36/59/33 37/61/33 4/64/33
f 37/61/33 3/63/33 4/64/33
f 12/25/33 13/29/33 43/33/33
f 43/33/33 44/37/33 33/49/33
f 44/37/33 45/41/33 33/49/33
f 45/41/33 46/45/33 33/49/33
f 4/64/33 38/9/33 9/17/33
f 9/17/33 12/25/33 43/33/33
f 33/49/33 35/57/33 4/64/33
f 4/64/33 9/17/33 43/33/33
f 19/52/34 18/50/34 49/48/34
f 49/48/34 48/46/34 32/44/34
f 32/44/34 31/42/34 64/40/34
f 64/40/34 30/38/34 29/36/34
f 29/36/34 63/34/34 62/32/34
f 62/32/34 61/30/34 60/28/34
f 60/28/34 28/26/34 25/20/34
f 28/26/34 27/24/34 25/20/34
f 27/24/34 26/22/34 25/20/34
f 25/20/34 59/18/34 58/16/34
f 58/16/34 24/14/34 57/12/34
f 57/12/34 56/10/34 23/8/34
f 23/8/34 55/6/34 22/4/34
f 22/4/34 54/1/34 53/3/34
f 53/3/34 52/62/34 22/4/34
f 52/62/34 21/60/34 22/4/34
f 21/60/34 20/58/34 51/56/34
f 51/56/34 50/54/34 19/52/34
f 19/52/34 49/48/34 32/44/34
f 32/44/34 64/40/34 29/36/34
f 29/36/34 62/32/34 25/20/34
f 62/32/34 60/28/34 25/20/34
f 25/20/34 58/16/34 22/4/34
f 58/16/34 57/12/34 22/4/34
f 57/12/34 23/8/34 22/4/34
f 21/60/34 51/56/34 22/4/34
f 51/56/34 19/52/34 22/4/34
f 19/52/34 32/44/34 29/36/34
f 19/52/34 29/36/34 25/20/34
